<svg width="512" height="512" viewBox="0 0 930 1344" xmlns="http://www.w3.org/2000/svg">
  <path d="M 12.4 8.1 C 10.6 10.2, 10.5 13.7, 10.2 138.4 C 10 230.6, 10.2 267.6, 11 270.4 C 11.8 273.1, 14.7 276.7, 20.9 282.9 C 25.7 287.6, 34.1 296.7, 39.7 303 C 45.2 309.3, 56.7 321.3, 65.1 329.7 C 73.6 338, 87 351.5, 95 359.7 C 116 381.3, 129.7 395.3, 131.5 397 C 132.4 397.8, 136.1 401.6, 139.7 405.5 C 143.3 409.4, 168.8 435.4, 196.4 463.4 C 224 491.4, 258.9 527, 273.9 542.4 C 311.6 580.9, 354.3 624.4, 378.6 649.1 L 398.9 669.7 397.9 673.4 C 397.1 676.4, 389.3 684.8, 358.6 715.8 C 319.7 755, 298.8 776.6, 284.5 792 C 280.1 796.7, 265.7 811.3, 252.5 824.6 C 239.3 837.8, 221.8 855.8, 213.5 864.6 C 198.1 881, 159 921, 155.6 923.9 C 151.6 927.2, 127.2 952.1, 120 960.1 C 112.8 968.1, 90.8 990.7, 37.3 1044.9 C 18 1064.4, 12 1071.1, 11.1 1074 C 10.3 1076.7, 10 1114.3, 10 1206.2 L 10 1334.7 12.3 1338.1 C 14.2 1340.8, 15.2 1341.5, 17.6 1341.3 C 19.2 1341.1, 77.1 1341, 146.2 1341 C 270.7 1341.1, 272 1341.1, 275.9 1339 C 280.2 1336.9, 292.5 1325.6, 304.9 1312.5 C 309.1 1308.1, 322.9 1294, 335.6 1281 C 361.3 1254.8, 387 1228.3, 409.5 1205 C 417.7 1196.5, 430.3 1183.6, 437.5 1176.4 C 444.6 1169.2, 461.3 1152.1, 474.5 1138.5 C 487.7 1124.8, 504.1 1108, 510.9 1101.1 C 517.7 1094.2, 533.6 1077.7, 546.4 1064.6 C 577.3 1032.5, 600.6 1008.6, 629.6 979 C 642.8 965.5, 658.1 949.8, 663.6 944.1 C 669 938.4, 682.7 924.5, 694 913.1 C 705.3 901.7, 728 878.5, 744.5 861.6 C 761 844.6, 781.3 823.9, 789.5 815.6 C 797.8 807.2, 811 793.4, 819 784.9 C 827 776.5, 838.7 764.3, 845 758 C 851.3 751.7, 862.3 740.4, 869.3 733 C 876.3 725.6, 891.7 709.6, 903.5 697.5 C 915.3 685.4, 925 675, 925 674.3 C 925 673.7, 926.2 672.3, 927.7 671.2 C 930.4 669.3, 930.4 669.2, 928.2 668.6 C 927 668.2, 925.3 666.7, 924.5 665.2 C 922.8 662, 924.5 663.7, 884 623.5 C 866.7 606.2, 841.7 581, 828.5 567.4 C 815.3 553.7, 792.4 530.4, 777.5 515.5 C 762.6 500.6, 740.6 478.1, 728.5 465.5 C 716.5 452.8, 694.4 430.3, 679.5 415.4 C 664.7 400.6, 642.4 377.8, 630 364.9 C 617.6 352, 593.8 327.7, 577 310.8 C 560.2 294, 538.4 271.8, 528.5 261.5 C 518.6 251.3, 498.4 230.6, 483.5 215.6 C 411 142.3, 339.8 69.9, 326 55.5 C 317.6 46.7, 303.6 32.1, 294.8 23 L 278.9 6.5 146.6 6.2 L 14.3 6 12.4 8.1" fill="#ffffff" fill-rule="evenodd"/>
</svg>
